<?xml version="1.0" encoding="UTF-8"?>
<svg xmlns="http://www.w3.org/2000/svg" viewBox="0 0 220 220" style="color:#EFE6D2">
<!-- S&N Golf · golfmade-roundel-green · Parchment and gold on bottle green
     Two inks: #EFE6D2 / #A8874E. Outline type before printing. -->
<path id="os-top" d="M36 110A74 74 0 0 1 184 110" fill="none"/>
    <path id="os-bot" d="M23 110A87 87 0 0 0 197 110" fill="none"/>
    <circle cx="110" cy="110" r="105" fill="none" stroke="currentColor" stroke-width="4.5"/>
    <circle cx="110" cy="110" r="96" fill="none" stroke="currentColor" stroke-width="1.3"/>
    <text font-family="Georgia,'Times New Roman',Times,serif" font-size="21" font-weight="700"
          letter-spacing="2.4" fill="currentColor">
      <textPath href="#os-top" startOffset="50%" text-anchor="middle">S&amp;N GOLF MADE</textPath>
    </text>
    <text font-family="Georgia,'Times New Roman',Times,serif" font-size="12"
          letter-spacing="5" fill="currentColor" opacity=".75">
      <textPath href="#os-bot" startOffset="50%" text-anchor="middle">GOLD COAST</textPath>
    </text>
    <path d="M14 110 19 105 24 110 19 115Z" fill="#A8874E"/>
    <path d="M196 110 201 105 206 110 201 115Z" fill="#A8874E"/>
    <defs>
      <g id="os-hickory">
        <path d="M0 -58V-36" stroke="#A8874E" stroke-width="8" stroke-linecap="round"/>
        <path d="M0 -38V27" stroke="currentColor" stroke-width="4" stroke-linecap="round"/>
        <path d="M-4 17h8M-4 22h8" stroke="#A8874E"
              stroke-width="1.6" stroke-linecap="round"/>
        <path d="M-2.5 26C5 27 16 31 24 35.5 29.5 38.5 31 43 27 45.5 23.5 47.5 16 47 10 45L-2.5 40.5C-5 39.5 -5.5 30.5 -2.5 26Z"
              fill="currentColor"/>
        <path d="M4 33 19 39M2.5 37.5 15.5 43" stroke="#A8874E"
              stroke-width="1.3" stroke-linecap="round"/>
      </g>
    </defs>
    <g transform="translate(110 104) scale(1.15)">
      <g transform="rotate(-38)"><use href="#os-hickory"/></g>
      <g transform="scale(-1 1) rotate(-38)"><use href="#os-hickory"/></g>
      <circle cx="0" cy="-52" r="9" fill="currentColor"/>
    </g>
</svg>
